HIERARCHY
ROOT Hips
{
	OFFSET 0.00000 0.00000 0.00000
	CHANNELS 6 Xposition Yposition Zposition Zrotation Yrotation Xrotation 
	JOINT LHipJoint
	{
		OFFSET 0 0 0
		CHANNELS 3 Zrotation Yrotation Xrotation
		JOINT LeftUpLeg
		{
			OFFSET 1.40001 -1.72600 0.84541
			CHANNELS 3 Zrotation Yrotation Xrotation
			JOINT LeftLeg
			{
				OFFSET 2.34760 -6.44999 0.00000
				CHANNELS 3 Zrotation Yrotation Xrotation
				JOINT LeftFoot
				{
					OFFSET 2.50650 -6.88655 0.00000
					CHANNELS 3 Zrotation Yrotation Xrotation
					JOINT LeftToeBase
					{
						OFFSET 0.12464 -0.34243 1.95563
						CHANNELS 3 Zrotation Yrotation Xrotation
						End Site
						{
							OFFSET 0.00000 -0.00000 1.00479
						}
					}
				}
			}
		}
	}
	JOINT RHipJoint
	{
		OFFSET 0 0 0
		CHANNELS 3 Zrotation Yrotation Xrotation
		JOINT RightUpLeg
		{
			OFFSET -1.40958 -1.72600 0.84541
			CHANNELS 3 Zrotation Yrotation Xrotation
			JOINT RightLeg
			{
				OFFSET -2.37905 -6.53640 0.00000
				CHANNELS 3 Zrotation Yrotation Xrotation
				JOINT RightFoot
				{
					OFFSET -2.50470 -6.88163 0.00000
					CHANNELS 3 Zrotation Yrotation Xrotation
					JOINT RightToeBase
					{
						OFFSET -0.12236 -0.33619 1.81785
						CHANNELS 3 Zrotation Yrotation Xrotation
						End Site
						{
							OFFSET -0.00000 -0.00000 0.93746
						}
					}
				}
			}
		}
	}
	JOINT LowerBack
	{
		OFFSET 0 0 0
		CHANNELS 3 Zrotation Yrotation Xrotation
		JOINT Spine
		{
			OFFSET -0.02146 1.96915 0.26424
			CHANNELS 3 Zrotation Yrotation Xrotation
			JOINT Spine1
			{
				OFFSET 0.01522 1.99484 0.02086
				CHANNELS 3 Zrotation Yrotation Xrotation
				JOINT Neck
				{
					OFFSET 0 0 0
					CHANNELS 3 Zrotation Yrotation Xrotation
					JOINT Neck1
					{
						OFFSET -0.02954 1.71757 0.03505
						CHANNELS 3 Zrotation Yrotation Xrotation
						JOINT Head
						{
							OFFSET 0.04170 1.65781 -0.11024
							CHANNELS 3 Zrotation Yrotation Xrotation
							End Site
							{
								OFFSET 0.01600 1.81465 -0.05144
							}
						}
					}
				}
				JOINT LeftShoulder
				{
					OFFSET 0 0 0
					CHANNELS 3 Zrotation Yrotation Xrotation
					JOINT LeftArm
					{
						OFFSET 2.77679 1.60868 -0.78649
						CHANNELS 3 Zrotation Yrotation Xrotation
						JOINT LeftForeArm
						{
							OFFSET 4.62672 -0.00000 -0.00000
							CHANNELS 3 Zrotation Yrotation Xrotation
							JOINT LeftHand
							{
								OFFSET 3.11018 -0.00000 -0.00000
								CHANNELS 3 Zrotation Yrotation Xrotation
								JOINT LeftFingerBase
								{
									OFFSET 0 0 0
									CHANNELS 3 Zrotation Yrotation Xrotation
									JOINT LeftHandIndex1
									{
										OFFSET 0.74383 -0.00000 -0.00000
										CHANNELS 3 Zrotation Yrotation Xrotation
										End Site
										{
											OFFSET 0.59970 -0.00000 -0.00000
										}
									}
								}
								JOINT LThumb
								{
									OFFSET 0 0 0
									CHANNELS 3 Zrotation Yrotation Xrotation
									End Site
									{
										OFFSET 0.60885 -0.00000 0.60885
									}
								}
							}
						}
					}
				}
				JOINT RightShoulder
				{
					OFFSET 0 0 0
					CHANNELS 3 Zrotation Yrotation Xrotation
					JOINT RightArm
					{
						OFFSET -2.73247 1.63658 -0.74740
						CHANNELS 3 Zrotation Yrotation Xrotation
						JOINT RightForeArm
						{
							OFFSET -4.55919 -0.00000 -0.00000
							CHANNELS 3 Zrotation Yrotation Xrotation
							JOINT RightHand
							{
								OFFSET -3.22748 -0.00000 -0.00000
								CHANNELS 3 Zrotation Yrotation Xrotation
								JOINT RightFingerBase
								{
									OFFSET 0 0 0
									CHANNELS 3 Zrotation Yrotation Xrotation
									JOINT RightHandIndex1
									{
										OFFSET -0.70088 -0.00000 -0.00000
										CHANNELS 3 Zrotation Yrotation Xrotation
										End Site
										{
											OFFSET -0.56507 -0.00000 -0.00000
										}
									}
								}
								JOINT RThumb
								{
									OFFSET 0 0 0
									CHANNELS 3 Zrotation Yrotation Xrotation
									End Site
									{
										OFFSET -0.57370 -0.00000 0.57370
									}
								}
							}
						}
					}
				}
			}
		}
	}
}
MOTION
Frames: 9
Frame Time: .0083333
0.6536 16.3879 -2.2594 2.8012 2.1985 15.9365 0.0000 0.0000 0.0000 -25.6632 1.7370 -18.4084 2.3072 9.4786 27.3044 0.1733 -22.9384 -17.3937 0.2888 3.4560 9.5511 0.0000 0.0000 0.0000 13.2820 10.4916 -47.9187 -4.9047 -13.2757 40.4094 -0.4912 -0.8819 -13.5879 -0.4689 4.3921 -12.1824 -3.8454 -1.9272 -13.8984 0.0908 -2.0362 -4.9291 1.9376 -0.9912 2.7223 0.4281 0.5018 -5.4792 -1.0908 0.7225 7.1795 -0.3975 0.3273 3.2763 0.0000 -0.0000 0.0000 -82.4122 -1.2650 28.0055 20.8356 -31.6359 -5.9635 -0.0000 0.0000 -6.4298 21.2088 -15.2008 -5.8097 -7.1250 0.0000 -0.0000 -4.3076 13.7643 3.1681 0.0000 -0.0000 0.0000 92.6207 -17.6226 -41.4187 -5.8721 10.0487 -0.5167 0.0000 0.0000 44.5244 -17.0068 -34.4723 9.8217 7.1250 -0.0000 -0.0000 20.3102 -64.5567 -9.8067
0.6579 16.3715 -2.0641 3.1679 2.7060 15.9095 0.0000 0.0000 0.0000 -25.9927 2.4861 -17.2452 2.1637 9.1991 26.4201 0.2578 -23.2240 -18.1548 0.1313 2.3352 6.4330 0.0000 0.0000 0.0000 13.1407 9.8631 -48.0367 -4.1889 -12.4076 37.1897 -0.5055 -0.5135 -13.6274 -0.5156 4.6025 -12.7783 -4.0681 -2.0889 -13.8163 0.0548 -2.2204 -4.8517 1.9958 -1.0836 2.7768 0.3664 0.4967 -5.0905 -1.0607 0.7148 6.7170 -0.3768 0.3254 3.0424 -0.0000 -0.0000 0.0000 -81.9580 -1.9758 29.0935 21.7209 -32.6602 -6.4346 -0.0000 0.0000 -7.4855 21.5845 -15.6029 -6.0739 -7.1250 0.0000 -0.0000 -4.0761 13.2948 3.0373 -0.0000 -0.0000 0.0000 92.7035 -18.1976 -42.9985 -5.8673 10.0406 -0.5159 0.0000 0.0000 44.9370 -17.1219 -34.5095 9.9000 7.1250 -0.0000 -0.0000 20.2173 -64.6226 -9.7910
0.6530 16.3534 -1.8752 3.1528 3.1537 15.9988 0.0000 0.0000 0.0000 -25.8642 3.1117 -16.2114 2.0125 8.8921 25.4584 0.3966 -23.0577 -18.9703 0.0240 0.9995 2.7474 0.0000 0.0000 0.0000 13.2982 9.6674 -48.1065 -3.5401 -11.5219 34.0608 -0.4565 -0.5440 -12.9722 -0.6927 5.3204 -14.8247 -4.0573 -2.1794 -13.7067 0.1280 -2.3481 -4.8139 2.0478 -1.1470 2.7685 0.7509 0.4900 -5.0533 -1.4712 0.7019 6.3727 -0.5764 0.3148 2.9231 -0.0000 0.0000 0.0000 -81.5048 -2.6836 29.9536 22.5923 -33.6400 -6.9111 -0.0000 0.0000 -8.2652 21.9458 -16.0296 -6.3487 -7.1250 0.0000 -0.0000 -3.8587 12.7985 2.9148 -0.0000 0.0000 0.0000 92.8014 -18.6646 -44.6960 -5.8444 10.0024 -0.5119 0.0000 0.0000 45.4261 -17.4373 -34.6386 10.1224 7.1250 -0.0000 -0.0000 19.9889 -64.8287 -9.7716
0.6478 16.3410 -1.6815 3.0513 3.5667 16.1465 0.0000 0.0000 0.0000 -25.6129 3.4137 -15.1679 1.8720 8.5941 24.5337 0.4478 -22.9121 -19.2174 0.0079 0.5725 1.5731 0.0000 0.0000 0.0000 13.4791 9.5383 -48.1898 -2.9630 -10.6348 31.0580 -0.4577 -0.1250 -12.8275 -0.9866 6.3221 -17.7220 -3.9265 -2.2542 -13.6976 0.2179 -2.4664 -4.7552 2.0478 -1.2077 2.8323 0.9644 0.4225 -5.5881 -1.7484 0.6136 6.5467 -0.7086 0.2636 3.0863 0.0000 0.0000 0.0000 -81.1232 -3.5116 30.6299 23.3673 -34.4880 -7.3452 -0.0000 0.0000 -8.8943 22.8371 -16.3659 -6.7671 -7.1250 0.0000 -0.0000 -3.2852 12.3273 2.5123 0.0000 0.0000 0.0000 92.8634 -18.9207 -46.9032 -5.8028 9.9329 -0.5047 0.0000 0.0000 46.4687 -17.4430 -34.4250 10.0723 7.1250 -0.0000 -0.0000 19.7686 -64.6324 -9.5700
0.6377 16.3220 -1.4854 3.4358 3.8833 16.2875 0.0000 0.0000 0.0000 -25.8626 3.4114 -13.9682 1.7351 8.2910 23.6015 0.4341 -22.8113 -19.0682 0.0054 0.4726 1.2986 0.0000 0.0000 0.0000 12.9662 9.5781 -48.2358 -2.4573 -9.7599 28.2027 -0.4515 0.3499 -12.5762 -0.8594 5.9116 -16.5280 -4.3590 -2.3933 -13.6011 0.1819 -2.5980 -4.8330 2.2367 -1.2681 2.7221 1.0783 0.3875 -5.4673 -1.8977 0.5674 6.4259 -0.7784 0.2389 3.0231 0.0000 -0.0000 0.0000 -80.7925 -4.1029 31.0695 24.0057 -35.1703 -7.7098 -0.0000 0.0000 -9.1187 23.3864 -16.7117 -7.0887 -7.1250 0.0000 -0.0000 -2.9446 11.8846 2.2781 0.0000 -0.0000 0.0000 93.0581 -19.5598 -47.8303 -5.8380 9.9917 -0.5108 0.0000 0.0000 46.3304 -17.4384 -34.6250 10.1197 7.1250 -0.0000 -0.0000 19.9739 -64.8165 -9.7583
0.6347 16.2934 -1.2813 3.5898 4.3142 16.3746 0.0000 0.0000 0.0000 -25.8400 3.6164 -12.6595 1.5862 7.9450 22.5471 0.3500 -23.0173 -18.6388 0.0068 0.5323 1.4626 0.0000 0.0000 0.0000 13.1292 9.0650 -48.4615 -2.0328 -8.9342 25.5896 -0.4235 0.8761 -12.0186 -1.0849 6.6199 -18.5940 -4.4554 -2.5086 -13.6117 0.1747 -2.7389 -4.9696 2.2629 -1.3328 2.5978 1.2161 0.3422 -4.5419 -1.9721 0.4997 5.8399 -0.8240 0.2119 2.6505 0.0000 0.0000 0.0000 -80.4995 -4.3537 31.3960 24.7666 -35.9645 -8.1524 -0.0000 0.0000 -9.2196 23.0118 -17.0922 -7.1154 -7.1250 0.0000 -0.0000 -3.2211 11.5290 2.5164 0.0000 0.0000 0.0000 93.2720 -20.5981 -47.0975 -5.9435 10.1679 -0.5292 0.0000 0.0000 44.4446 -17.4336 -34.8131 10.1638 7.1250 -0.0000 -0.0000 20.1704 -64.9890 -9.9385
0.6414 16.2700 -1.0729 3.6968 5.1114 16.5281 0.0000 0.0000 0.0000 -25.7034 3.7169 -11.2558 1.4219 7.5409 21.3280 0.3430 -23.0796 -18.6304 0.0018 -0.2753 -0.7565 0.0000 0.0000 0.0000 13.6902 7.8094 -49.0219 -1.6985 -8.2077 23.3467 -0.4006 1.8797 -11.4512 -1.5169 7.7776 -22.0405 -4.3040 -2.6904 -13.8183 0.1956 -2.9867 -4.9422 2.1503 -1.4592 2.7502 1.2063 0.3072 -4.4900 -1.9517 0.4516 5.7540 -0.8169 0.1889 2.6109 -0.0000 0.0000 0.0000 -80.2925 -4.9512 31.7565 25.4813 -36.6919 -8.5758 -0.0000 0.0000 -9.2893 22.8920 -17.3540 -7.1785 -7.1250 0.0000 -0.0000 -3.3197 11.2664 2.6116 -0.0000 0.0000 0.0000 93.4085 -21.2027 -46.8645 -6.0459 10.3386 -0.5475 0.0000 0.0000 42.9994 -16.8738 -34.8012 9.8215 7.1250 -0.0000 -0.0000 20.7941 -64.8229 -10.1782
0.6383 16.2695 -0.8727 3.8671 5.7139 16.6360 0.0000 0.0000 0.0000 -25.6219 3.7003 -9.9017 1.2762 7.1595 20.1887 0.2952 -23.0273 -18.2797 0.0101 -0.6504 -1.7872 0.0000 0.0000 0.0000 13.5267 7.4557 -49.1789 -1.4225 -7.5422 21.3320 -0.3786 3.1246 -10.9694 -1.1182 6.7175 -18.8811 -4.4142 -2.8769 -13.8531 0.2475 -3.2150 -4.7990 2.2227 -1.5772 2.9439 1.2741 0.3553 -5.1080 -2.0067 0.5130 6.0082 -0.8472 0.2155 2.8143 -0.0000 -0.0000 0.0000 -80.0899 -5.7637 31.9265 26.1722 -37.3782 -8.9920 -0.0000 0.0000 -9.4578 23.0700 -17.3976 -7.2575 -7.1250 0.0000 -0.0000 -3.2055 11.1953 2.5262 -0.0000 -0.0000 0.0000 93.4272 -21.4194 -47.1163 -6.0780 10.3923 -0.5532 0.0000 0.0000 42.4372 -16.5786 -35.0144 9.6936 7.1250 -0.0000 -0.0000 21.3492 -64.9367 -10.5176
0.6262 16.2652 -0.6718 4.0559 6.0594 16.7917 0.0000 0.0000 0.0000 -25.5764 3.8244 -8.7205 1.1429 6.7888 19.0911 0.3039 -22.7271 -18.1501 0.0750 -1.7670 -4.8622 0.0000 0.0000 0.0000 13.2341 7.4785 -49.3150 -1.2071 -6.9701 19.6270 -0.3577 4.5085 -10.6518 -0.5562 4.7774 -13.2748 -4.6901 -3.0181 -13.9446 0.3247 -3.3611 -4.7577 2.4281 -1.6512 3.0658 1.3897 0.3623 -5.0093 -2.2121 0.5237 5.7142 -0.9315 0.2178 2.6991 -0.0000 -0.0000 0.0000 -79.9490 -6.3614 32.1901 26.9367 -38.1188 -9.4600 -0.0000 0.0000 -9.6498 23.2455 -16.6015 -6.9967 -7.1250 0.0000 -0.0000 -3.0300 12.0216 2.3358 -0.0000 -0.0000 0.0000 93.5206 -21.9682 -45.9105 -6.2137 10.6180 -0.5780 0.0000 0.0000 40.6211 -16.5094 -35.4241 9.7480 7.1250 -0.0000 -0.0000 21.8639 -65.2908 -10.9611
